<svg xmlns="http://www.w3.org/2000/svg" width="1600" height="860" viewBox="0 0 1600 860">
  <rect width="1600" height="860" fill="#ffffff"/>
  <rect width="300" height="860" fill="#f1f3f8"/>
  <text x="28" y="48" font-family="Inter, Arial, sans-serif" font-size="22" font-weight="700" fill="#313442">Configuration</text>
  <text x="28" y="86" font-family="Inter, Arial, sans-serif" font-size="13" font-weight="700" fill="#5d6472">Write URL (PRW endpoint)</text>
  <rect x="28" y="98" width="252" height="38" rx="7" fill="#ffffff"/>
  <text x="40" y="123" font-family="Inter, Arial, sans-serif" font-size="13" fill="#4b5563">http://vminsert-vm-load...</text>
  <text x="28" y="166" font-family="Inter, Arial, sans-serif" font-size="13" font-weight="700" fill="#5d6472">Select URL (query_range endpoint)</text>
  <rect x="28" y="178" width="252" height="38" rx="7" fill="#ffffff"/>
  <text x="40" y="203" font-family="Inter, Arial, sans-serif" font-size="13" fill="#4b5563">http://vmselect-vm-load...</text>
  <text x="28" y="247" font-family="Inter, Arial, sans-serif" font-size="13" font-weight="700" fill="#5d6472">Metric name prefix</text>
  <rect x="28" y="259" width="252" height="38" rx="7" fill="#ffffff"/>
  <text x="40" y="284" font-family="Inter, Arial, sans-serif" font-size="14" fill="#4b5563">test_</text>
  <text x="28" y="329" font-family="Inter, Arial, sans-serif" font-size="13" font-weight="700" fill="#5d6472">Metric variants</text>
  <line x1="28" y1="361" x2="280" y2="361" stroke="#dfe3ec" stroke-width="4"/>
  <line x1="28" y1="361" x2="212" y2="361" stroke="#ff4b4b" stroke-width="4"/>
  <circle cx="212" cy="361" r="6" fill="#ff4b4b"/>
  <text x="206" y="346" font-family="Inter, Arial, sans-serif" font-size="13" fill="#ff4b4b">15</text>
  <text x="28" y="411" font-family="Inter, Arial, sans-serif" font-size="13" font-weight="700" fill="#5d6472">Extra labels</text>
  <line x1="28" y1="444" x2="280" y2="444" stroke="#dfe3ec" stroke-width="4"/>
  <line x1="28" y1="444" x2="226" y2="444" stroke="#ff4b4b" stroke-width="4"/>
  <circle cx="226" cy="444" r="6" fill="#ff4b4b"/>
  <text x="222" y="429" font-family="Inter, Arial, sans-serif" font-size="13" fill="#ff4b4b">8</text>
  <line x1="28" y1="510" x2="280" y2="510" stroke="#d8dde8"/>
  <text x="28" y="578" font-family="Inter, Arial, sans-serif" font-size="20" font-weight="700" fill="#313442">Insert</text>
  <text x="28" y="614" font-family="Inter, Arial, sans-serif" font-size="13" font-weight="700" fill="#5d6472">Insert VUs</text>
  <line x1="28" y1="644" x2="280" y2="644" stroke="#dfe3ec" stroke-width="4"/>
  <line x1="28" y1="644" x2="153" y2="644" stroke="#ff4b4b" stroke-width="4"/>
  <circle cx="153" cy="644" r="6" fill="#ff4b4b"/>
  <text x="147" y="629" font-family="Inter, Arial, sans-serif" font-size="13" fill="#ff4b4b">50</text>
  <line x1="28" y1="712" x2="280" y2="712" stroke="#d8dde8"/>
  <text x="28" y="780" font-family="Inter, Arial, sans-serif" font-size="20" font-weight="700" fill="#313442">Select</text>
  <text x="28" y="816" font-family="Inter, Arial, sans-serif" font-size="13" font-weight="700" fill="#5d6472">Select VUs</text>
  <line x1="28" y1="846" x2="280" y2="846" stroke="#dfe3ec" stroke-width="4"/>
  <line x1="28" y1="846" x2="36" y2="846" stroke="#ff4b4b" stroke-width="4"/>
  <circle cx="36" cy="846" r="6" fill="#ff4b4b"/>
  <text x="32" y="831" font-family="Inter, Arial, sans-serif" font-size="13" fill="#ff4b4b">2</text>
  <text x="380" y="94" font-family="Inter, Arial, sans-serif" font-size="42" font-weight="800" fill="#313442">Breaking Bench</text>
  <text x="380" y="158" font-family="Inter, Arial, sans-serif" font-size="29" font-weight="800" fill="#313442">Insert</text>
  <text x="1000" y="158" font-family="Inter, Arial, sans-serif" font-size="29" font-weight="800" fill="#313442">Select</text>
  <rect x="380" y="180" width="562" height="54" rx="8" fill="#e5f8ed"/>
  <text x="394" y="213" font-family="Inter, Arial, sans-serif" font-size="16" fill="#25944b">insert running</text>
  <rect x="1000" y="180" width="562" height="54" rx="8" fill="#e5f8ed"/>
  <text x="1014" y="213" font-family="Inter, Arial, sans-serif" font-size="16" fill="#25944b">select running</text>
  <rect x="380" y="250" width="272" height="38" rx="7" fill="#ffffff" stroke="#d8dde8"/>
  <text x="485" y="274" font-family="Inter, Arial, sans-serif" font-size="13" fill="#3f4654">Stop insert</text>
  <rect x="668" y="250" width="272" height="38" rx="7" fill="#ffffff" stroke="#d8dde8"/>
  <text x="790" y="274" font-family="Inter, Arial, sans-serif" font-size="13" fill="#3f4654">Pause</text>
  <rect x="1000" y="250" width="272" height="38" rx="7" fill="#ffffff" stroke="#d8dde8"/>
  <text x="1107" y="274" font-family="Inter, Arial, sans-serif" font-size="13" fill="#3f4654">Stop select</text>
  <rect x="1288" y="250" width="272" height="38" rx="7" fill="#ffffff" stroke="#d8dde8"/>
  <text x="1410" y="274" font-family="Inter, Arial, sans-serif" font-size="13" fill="#3f4654">Pause</text>
</svg>
